<?xml version="1.0" encoding="UTF-8" standalone="no"?>
<svg viewBox="0 0 248.03149 248.03149" xmlns="http://www.w3.org/2000/svg">
<g transform="translate(0,-804.33069)">
<path d="m0,804.33069h248.03149v248.03149h-248.03149z" fill="#fff" fill-rule="evenodd"/>
<g stroke="#000" transform="translate(.17975)">
<path d="m-709.24611,646.47351a3.48863,3.48863 0 0,1 3.48863,3.48863v15.94802a3.48863,3.48863 0 0,1 -3.48863,3.48863 3.48863,3.48863 0 0,1 -3.48863-3.48863v-15.94802a3.48863,3.48863 0 0,1 3.48863-3.48863" fill="#151518" fill-rule="evenodd" stroke="#000" stroke-width="1.25" transform="matrix(-.78216,-.62308,-.62308,.78216,0,0)"/>
<path d="m-705.63287,651.64417h141.66321v12.58398h-141.66321z" fill="#151518" fill-rule="evenodd" stroke="#000" stroke-width="1.25" transform="matrix(-.78216,-.62308,-.62308,.78216,0,0)"/>
<path d="m50.19656,873.12199 5.27896-6.62675-10.81721-8.61713 21.81452-27.38409 5.65224,4.50265-7.21975,9.06306 6.04204,4.81317 7.21975-9.06307 9.84268,7.84081-10.86844,13.64332-9.55032-7.60791-4.6579,5.84713 9.55032,7.60791-6.28818,7.89364 5.25972,4.18996 6.28817-7.89364 9.55032,7.60791 4.6579-5.84713-9.55032-7.60791 10.86844-13.64332 9.84268,7.84081-7.21975,9.06306 6.04204,4.81317 7.21975-9.06307 5.65224,4.50265-21.81453,27.38409-10.81721-8.61713-5.27896,6.62675-26.69921-21.26894z" fill="#151518" fill-rule="evenodd" stroke="#000" stroke-width="1.25"/>
<path d="m151.71131,962.03431c-13.75031,17.26097-13.42644,40.41779.72293,51.68939s36.79258,6.4106 50.54289-10.8504 13.42644-40.41776-.72293-51.68933-36.79259-6.41062-50.54289,10.85034zm42.58327,33.9224c-9.56871,12.01179-24.92838,15.71109-34.28498,8.25749-7.99226-6.36671-11.54478-26.08753 5.45178-31.22639 1.20928-17.7152 21.22519-18.66111 29.21745-12.29437 9.3566,7.45359 9.18445,23.25153-.38425,35.26327z" fill="#151518" fill-rule="evenodd" stroke="#000" stroke-width="1.21915"/>
<path d="m-716.47254,645.35217h.49838a3.23944,3.23944 0 0,1 3.23944,3.23944v18.68908a3.23944,3.23944 0 0,1 -3.23944,3.23944h-.49838a3.23944,3.23944 0 0,1 -3.23944-3.23944v-18.68908a3.23944,3.23944 0 0,1 3.23944-3.23944" fill="#151518" fill-rule="evenodd" stroke="#000" stroke-width="1.25" transform="matrix(-.78216,-.62308,-.62308,.78216,0,0)"/>
<path d="m7.5767,151.29642a14.8891,25.72554 0 1,1 -29.77819,0 14.8891,25.72554 0 1,1 29.77819,0z" fill="#151518" fill-rule="evenodd" stroke="#000" stroke-width="3.5226" transform="matrix(-.27386,-.21816,-.22408,.2813,236.97925,960.39328)"/>
<path d="m7.5767,151.29642a14.8891,25.72554 0 1,1 -29.77819,0 14.8891,25.72554 0 1,1 29.77819,0z" fill="#151518" fill-rule="evenodd" stroke="#000" stroke-width="3.5226" transform="matrix(.21816,-.27386,-.2813,-.22408,193.93919,1048.9499)"/>
<path d="m7.5767,151.29642a14.8891,25.72554 0 1,1 -29.77819,0 14.8891,25.72554 0 1,1 29.77819,0z" fill="#151518" fill-rule="evenodd" stroke="#000" stroke-width="3.5226" transform="matrix(.21816,-.27386,-.2813,-.22408,249.05773,979.75878)"/>
</g>
<g fill="#151518" stroke="#000" transform="translate(-.56782)">
<path d="m-514.9424,801.25836a3.48863,3.48863 0 0,1 3.48863,3.48863v15.94802a3.48863,3.48863 0 0,1 -3.48863,3.48863 3.48863,3.48863 0 0,1 -3.48863-3.48863v-15.94802a3.48863,3.48863 0 0,1 3.48863-3.48863" fill="#151518" fill-rule="evenodd" stroke="#000" stroke-width="1.25" transform="matrix(.78216,-.62308,.62308,.78216,0,0)"/>
<path d="m112.52774,137.05725 10.10247,8.04101-12.26182,9.76792-7.8408-9.84268 10.00015-7.96625z" fill="#151518" fill-rule="evenodd" stroke="#000" stroke-width="1.25" transform="translate(0,804.33069)"/>
<path d="m136.63283,133.94358-10.10488-8.03908 86.80285-69.14828 7.8408,9.84267-84.53877,67.34469z" fill="#151518" fill-rule="evenodd" stroke="#000" stroke-width="1.25" transform="translate(0,804.33069)"/>
<path d="m198.22301,873.12199-5.27896-6.62675 10.81721-8.61713-21.81452-27.38409-5.65224,4.50265 7.21975,9.06306-6.04204,4.81317-7.21975-9.06307-9.84268,7.84081 10.86845,13.64332 9.55032-7.60791 4.6579,5.84713-9.55032,7.60791 6.28818,7.89364-5.25972,4.18996-6.28818-7.89364-9.55032,7.60791-4.6579-5.84713 9.55032-7.60791-10.86844-13.64332-9.84268,7.84081 7.21975,9.06306-6.04204,4.81317-7.21975-9.06307-5.65224,4.50265 21.81452,27.38409 10.81721-8.61713 5.27896,6.62675 26.69921-21.26894z" fill="#151518" fill-rule="evenodd" stroke="#000" stroke-width="1.25"/>
<path d="m96.70826,962.03431c13.75031,17.26097 13.42644,40.41779-.72293,51.68939s-36.79258,6.4106-50.5429-10.8504-13.42643-40.41776.72293-51.68933 36.79258-6.41062 50.54289,10.85034zm-42.58327,33.9224c9.56871,12.01179 24.92837,15.71109 34.28497,8.25749 7.99227-6.36671 11.54478-26.08753-5.45177-31.22639-1.20929-17.7152-21.22519-18.66111-29.21746-12.29437-9.3566,7.45359-9.18445,23.25153.38426,35.26327z" fill="#151518" fill-rule="evenodd" stroke="#000" stroke-width="1.21915"/>
<path d="m-522.16882,800.13702h.49838a3.23944,3.23944 0 0,1 3.23944,3.23944v18.68908a3.23944,3.23944 0 0,1 -3.23944,3.23944h-.49838a3.23944,3.23944 0 0,1 -3.23944-3.23944v-18.68908a3.23944,3.23944 0 0,1 3.23944-3.23944" fill="#151518" fill-rule="evenodd" stroke="#000" stroke-width="1.25" transform="matrix(.78216,-.62308,.62308,.78216,0,0)"/>
<path d="m7.5767,151.29642a14.8891,25.72554 0 1,1 -29.77819,0 14.8891,25.72554 0 1,1 29.77819,0z" fill="#151518" fill-rule="evenodd" stroke="#000" stroke-width="3.5226" transform="matrix(.27386,-.21816,.22408,.2813,11.44032,960.39328)"/>
<path d="m7.5767,151.29642a14.8891,25.72554 0 1,1 -29.77819,0 14.8891,25.72554 0 1,1 29.77819,0z" fill="#151518" fill-rule="evenodd" stroke="#000" stroke-width="3.5226" transform="matrix(-.21816,-.27386,.2813,-.22408,-.63816,979.75878)"/>
<path d="m7.5767,151.29642a14.8891,25.72554 0 1,1 -29.77819,0 14.8891,25.72554 0 1,1 29.77819,0z" fill="#151518" fill-rule="evenodd" stroke="#000" stroke-width="3.5226" transform="matrix(-.21816,-.27386,.2813,-.22408,54.48038,1048.9499)"/>
</g>
</g>
</svg>
