<?xml version="1.0" encoding="utf-8"?>
<!-- Generator: Adobe Illustrator 17.0.0, SVG Export Plug-In . SVG Version: 6.00 Build 0)  -->
<!DOCTYPE svg PUBLIC "-//W3C//DTD SVG 1.1//EN" "http://www.w3.org/Graphics/SVG/1.1/DTD/svg11.dtd">
<svg version="1.1" id="Livello_1" xmlns="http://www.w3.org/2000/svg" xmlns:xlink="http://www.w3.org/1999/xlink" x="0px" y="0px"
	 width="1920px" height="1260px" viewBox="0 0 1920 1260" enable-background="new 0 0 1920 1260" xml:space="preserve">
<g>
	<path fill="#29ABE2" d="M1019.956,669.392c-40.277-40.277-87.23-71.467-139.555-92.705c-50.534-20.511-103.914-30.91-158.657-30.91
		s-108.123,10.399-158.657,30.91c-52.324,21.237-99.277,52.428-139.554,92.705c-13.473,13.474-13.473,35.317,0,48.791
		s35.318,13.472,48.79,0c137.531-137.531,361.311-137.531,498.841,0c6.737,6.736,15.566,10.104,24.396,10.104
		s17.658-3.368,24.396-10.104C1033.429,704.709,1033.429,682.865,1019.956,669.392z"/>
	<path fill="#29ABE2" d="M721.745,667.943c-84.481,0-163.946,32.939-223.757,92.75c-13.473,13.474-13.473,35.317,0,48.791
		c13.473,13.473,35.317,13.473,48.79,0c96.478-96.479,253.456-96.479,349.934,0c6.736,6.736,15.566,10.104,24.395,10.104
		s17.659-3.368,24.395-10.104c13.473-13.474,13.473-35.317,0-48.791C885.69,700.883,806.226,667.943,721.745,667.943z"/>
	<path fill="#29ABE2" d="M721.745,792.712c-51.632,0-100.197,20.129-136.748,56.68c-13.473,13.474-13.473,35.317,0,48.791
		c13.472,13.472,35.316,13.472,48.79,0c48.5-48.5,127.415-48.5,175.915,0c6.736,6.736,15.565,10.104,24.395,10.104
		c8.829,0,17.659-3.368,24.395-10.104c13.473-13.474,13.473-35.317,0-48.791C821.941,812.841,773.376,792.712,721.745,792.712z"/>
	<circle fill="#29ABE2" cx="721.602" cy="939.571" r="28.652"/>
</g>
</svg>
